<mxfile host="app.diagrams.net" modified="2023-04-15T03:40:25.390Z" agent="Mozilla/5.0 (Macintosh; Intel Mac OS X 10_15_7) AppleWebKit/537.36 (KHTML, like Gecko) Chrome/111.0.0.0 Safari/537.36" etag="ruPUmy1gh45kdMfzFMNj" version="21.1.7" type="github">
  <diagram name="第 1 页" id="DPWCuEcmnEKJ8pt8c-eH">
    <mxGraphModel dx="1434" dy="795" grid="1" gridSize="10" guides="1" tooltips="1" connect="1" arrows="1" fold="1" page="1" pageScale="1" pageWidth="827" pageHeight="1169" math="0" shadow="0">
      <root>
        <mxCell id="0" />
        <mxCell id="1" parent="0" />
        <mxCell id="Y8cPCmYYYPs-ym0as5yR-6" style="rounded=0;orthogonalLoop=1;jettySize=auto;html=1;entryX=0.5;entryY=0;entryDx=0;entryDy=0;" parent="1" source="Y8cPCmYYYPs-ym0as5yR-1" target="Y8cPCmYYYPs-ym0as5yR-2" edge="1">
          <mxGeometry relative="1" as="geometry" />
        </mxCell>
        <mxCell id="Y8cPCmYYYPs-ym0as5yR-13" style="edgeStyle=none;rounded=0;orthogonalLoop=1;jettySize=auto;html=1;entryX=0.25;entryY=0;entryDx=0;entryDy=0;exitX=0.922;exitY=0.938;exitDx=0;exitDy=0;exitPerimeter=0;" parent="1" source="Y8cPCmYYYPs-ym0as5yR-1" target="Y8cPCmYYYPs-ym0as5yR-12" edge="1">
          <mxGeometry relative="1" as="geometry" />
        </mxCell>
        <mxCell id="Y8cPCmYYYPs-ym0as5yR-1" value="subRoot" style="rounded=1;whiteSpace=wrap;html=1;" parent="1" vertex="1">
          <mxGeometry x="260" y="290" width="50" height="20" as="geometry" />
        </mxCell>
        <mxCell id="Y8cPCmYYYPs-ym0as5yR-7" style="edgeStyle=none;rounded=0;orthogonalLoop=1;jettySize=auto;html=1;entryX=0.5;entryY=0;entryDx=0;entryDy=0;" parent="1" source="Y8cPCmYYYPs-ym0as5yR-2" target="Y8cPCmYYYPs-ym0as5yR-3" edge="1">
          <mxGeometry relative="1" as="geometry" />
        </mxCell>
        <mxCell id="Y8cPCmYYYPs-ym0as5yR-10" style="edgeStyle=none;rounded=0;orthogonalLoop=1;jettySize=auto;html=1;exitX=0.75;exitY=1;exitDx=0;exitDy=0;entryX=0.5;entryY=0;entryDx=0;entryDy=0;" parent="1" source="Y8cPCmYYYPs-ym0as5yR-2" target="Y8cPCmYYYPs-ym0as5yR-4" edge="1">
          <mxGeometry relative="1" as="geometry" />
        </mxCell>
        <mxCell id="Y8cPCmYYYPs-ym0as5yR-2" value="" style="rounded=1;whiteSpace=wrap;html=1;" parent="1" vertex="1">
          <mxGeometry x="220" y="330" width="30" height="20" as="geometry" />
        </mxCell>
        <mxCell id="Y8cPCmYYYPs-ym0as5yR-3" value="" style="rounded=1;whiteSpace=wrap;html=1;" parent="1" vertex="1">
          <mxGeometry x="190" y="370" width="30" height="20" as="geometry" />
        </mxCell>
        <mxCell id="Y8cPCmYYYPs-ym0as5yR-11" style="edgeStyle=none;rounded=0;orthogonalLoop=1;jettySize=auto;html=1;entryX=0.25;entryY=0;entryDx=0;entryDy=0;" parent="1" source="Y8cPCmYYYPs-ym0as5yR-4" target="Y8cPCmYYYPs-ym0as5yR-5" edge="1">
          <mxGeometry relative="1" as="geometry" />
        </mxCell>
        <mxCell id="Y8cPCmYYYPs-ym0as5yR-4" value="" style="rounded=1;whiteSpace=wrap;html=1;" parent="1" vertex="1">
          <mxGeometry x="250" y="370" width="30" height="20" as="geometry" />
        </mxCell>
        <mxCell id="Y8cPCmYYYPs-ym0as5yR-5" value="ComponentB" style="rounded=1;whiteSpace=wrap;html=1;fillColor=#fff2cc;strokeColor=#d6b656;" parent="1" vertex="1">
          <mxGeometry x="280" y="410" width="80" height="20" as="geometry" />
        </mxCell>
        <mxCell id="Y8cPCmYYYPs-ym0as5yR-12" value="ComponentA" style="rounded=1;whiteSpace=wrap;html=1;fillColor=#d5e8d4;strokeColor=#82b366;" parent="1" vertex="1">
          <mxGeometry x="320" y="330" width="80" height="20" as="geometry" />
        </mxCell>
        <mxCell id="ZV8GHxd2IntCmvQJXcL1-1" value="" style="shape=table;startSize=20;container=1;collapsible=0;childLayout=tableLayout;fontSize=16;" parent="1" vertex="1">
          <mxGeometry x="370" y="560" width="180" height="117" as="geometry" />
        </mxCell>
        <mxCell id="ZV8GHxd2IntCmvQJXcL1-2" value="" style="shape=tableRow;horizontal=0;startSize=0;swimlaneHead=0;swimlaneBody=0;strokeColor=inherit;top=0;left=0;bottom=0;right=0;collapsible=0;dropTarget=0;fillColor=none;points=[[0,0.5],[1,0.5]];portConstraint=eastwest;fontSize=16;" parent="ZV8GHxd2IntCmvQJXcL1-1" vertex="1">
          <mxGeometry y="20" width="180" height="30" as="geometry" />
        </mxCell>
        <mxCell id="ZV8GHxd2IntCmvQJXcL1-3" value="" style="shape=partialRectangle;html=1;whiteSpace=wrap;connectable=0;strokeColor=inherit;overflow=hidden;fillColor=none;top=0;left=0;bottom=0;right=0;pointerEvents=1;fontSize=16;" parent="ZV8GHxd2IntCmvQJXcL1-2" vertex="1">
          <mxGeometry width="60" height="30" as="geometry">
            <mxRectangle width="60" height="30" as="alternateBounds" />
          </mxGeometry>
        </mxCell>
        <mxCell id="ZV8GHxd2IntCmvQJXcL1-4" value="" style="shape=partialRectangle;html=1;whiteSpace=wrap;connectable=0;strokeColor=inherit;overflow=hidden;fillColor=none;top=0;left=0;bottom=0;right=0;pointerEvents=1;fontSize=16;" parent="ZV8GHxd2IntCmvQJXcL1-2" vertex="1">
          <mxGeometry x="60" width="60" height="30" as="geometry">
            <mxRectangle width="60" height="30" as="alternateBounds" />
          </mxGeometry>
        </mxCell>
        <mxCell id="ZV8GHxd2IntCmvQJXcL1-5" value="" style="shape=partialRectangle;html=1;whiteSpace=wrap;connectable=0;strokeColor=inherit;overflow=hidden;fillColor=none;top=0;left=0;bottom=0;right=0;pointerEvents=1;fontSize=16;" parent="ZV8GHxd2IntCmvQJXcL1-2" vertex="1">
          <mxGeometry x="120" width="60" height="30" as="geometry">
            <mxRectangle width="60" height="30" as="alternateBounds" />
          </mxGeometry>
        </mxCell>
        <mxCell id="ZV8GHxd2IntCmvQJXcL1-6" value="" style="shape=tableRow;horizontal=0;startSize=0;swimlaneHead=0;swimlaneBody=0;strokeColor=inherit;top=0;left=0;bottom=0;right=0;collapsible=0;dropTarget=0;fillColor=none;points=[[0,0.5],[1,0.5]];portConstraint=eastwest;fontSize=16;" parent="ZV8GHxd2IntCmvQJXcL1-1" vertex="1">
          <mxGeometry y="50" width="180" height="34" as="geometry" />
        </mxCell>
        <mxCell id="ZV8GHxd2IntCmvQJXcL1-7" value="" style="shape=partialRectangle;html=1;whiteSpace=wrap;connectable=0;strokeColor=inherit;overflow=hidden;fillColor=none;top=0;left=0;bottom=0;right=0;pointerEvents=1;fontSize=16;" parent="ZV8GHxd2IntCmvQJXcL1-6" vertex="1">
          <mxGeometry width="60" height="34" as="geometry">
            <mxRectangle width="60" height="34" as="alternateBounds" />
          </mxGeometry>
        </mxCell>
        <mxCell id="ZV8GHxd2IntCmvQJXcL1-8" value="" style="shape=partialRectangle;html=1;whiteSpace=wrap;connectable=0;strokeColor=inherit;overflow=hidden;fillColor=none;top=0;left=0;bottom=0;right=0;pointerEvents=1;fontSize=16;" parent="ZV8GHxd2IntCmvQJXcL1-6" vertex="1">
          <mxGeometry x="60" width="60" height="34" as="geometry">
            <mxRectangle width="60" height="34" as="alternateBounds" />
          </mxGeometry>
        </mxCell>
        <mxCell id="ZV8GHxd2IntCmvQJXcL1-9" value="" style="shape=partialRectangle;html=1;whiteSpace=wrap;connectable=0;strokeColor=inherit;overflow=hidden;fillColor=none;top=0;left=0;bottom=0;right=0;pointerEvents=1;fontSize=16;" parent="ZV8GHxd2IntCmvQJXcL1-6" vertex="1">
          <mxGeometry x="120" width="60" height="34" as="geometry">
            <mxRectangle width="60" height="34" as="alternateBounds" />
          </mxGeometry>
        </mxCell>
        <mxCell id="ZV8GHxd2IntCmvQJXcL1-10" value="" style="shape=tableRow;horizontal=0;startSize=0;swimlaneHead=0;swimlaneBody=0;strokeColor=inherit;top=0;left=0;bottom=0;right=0;collapsible=0;dropTarget=0;fillColor=none;points=[[0,0.5],[1,0.5]];portConstraint=eastwest;fontSize=16;" parent="ZV8GHxd2IntCmvQJXcL1-1" vertex="1">
          <mxGeometry y="84" width="180" height="33" as="geometry" />
        </mxCell>
        <mxCell id="ZV8GHxd2IntCmvQJXcL1-11" value="" style="shape=partialRectangle;html=1;whiteSpace=wrap;connectable=0;strokeColor=inherit;overflow=hidden;fillColor=none;top=0;left=0;bottom=0;right=0;pointerEvents=1;fontSize=16;" parent="ZV8GHxd2IntCmvQJXcL1-10" vertex="1">
          <mxGeometry width="60" height="33" as="geometry">
            <mxRectangle width="60" height="33" as="alternateBounds" />
          </mxGeometry>
        </mxCell>
        <mxCell id="ZV8GHxd2IntCmvQJXcL1-12" value="" style="shape=partialRectangle;html=1;whiteSpace=wrap;connectable=0;strokeColor=inherit;overflow=hidden;fillColor=none;top=0;left=0;bottom=0;right=0;pointerEvents=1;fontSize=16;" parent="ZV8GHxd2IntCmvQJXcL1-10" vertex="1">
          <mxGeometry x="60" width="60" height="33" as="geometry">
            <mxRectangle width="60" height="33" as="alternateBounds" />
          </mxGeometry>
        </mxCell>
        <mxCell id="ZV8GHxd2IntCmvQJXcL1-13" value="" style="shape=partialRectangle;html=1;whiteSpace=wrap;connectable=0;strokeColor=inherit;overflow=hidden;fillColor=none;top=0;left=0;bottom=0;right=0;pointerEvents=1;fontSize=16;" parent="ZV8GHxd2IntCmvQJXcL1-10" vertex="1">
          <mxGeometry x="120" width="60" height="33" as="geometry">
            <mxRectangle width="60" height="33" as="alternateBounds" />
          </mxGeometry>
        </mxCell>
        <mxCell id="ZV8GHxd2IntCmvQJXcL1-28" value="Assets" style="childLayout=tableLayout;recursiveResize=0;strokeColor=#98bf21;fillColor=#A7C942;shadow=1;" parent="1" vertex="1">
          <mxGeometry x="620" y="540" width="280" height="180" as="geometry" />
        </mxCell>
        <mxCell id="ZV8GHxd2IntCmvQJXcL1-29" style="shape=tableRow;horizontal=0;startSize=0;swimlaneHead=0;swimlaneBody=0;top=0;left=0;bottom=0;right=0;dropTarget=0;collapsible=0;recursiveResize=0;expand=0;fontStyle=0;strokeColor=inherit;fillColor=#ffffff;" parent="ZV8GHxd2IntCmvQJXcL1-28" vertex="1">
          <mxGeometry width="280" height="37" as="geometry" />
        </mxCell>
        <mxCell id="ZV8GHxd2IntCmvQJXcL1-30" value="Title 1" style="connectable=0;recursiveResize=0;strokeColor=inherit;fillColor=#A7C942;align=center;fontStyle=1;fontColor=#FFFFFF;html=1;" parent="ZV8GHxd2IntCmvQJXcL1-29" vertex="1">
          <mxGeometry width="90" height="37" as="geometry">
            <mxRectangle width="90" height="37" as="alternateBounds" />
          </mxGeometry>
        </mxCell>
        <mxCell id="ZV8GHxd2IntCmvQJXcL1-31" value="Title 2" style="connectable=0;recursiveResize=0;strokeColor=inherit;fillColor=#A7C942;align=center;fontStyle=1;fontColor=#FFFFFF;html=1;" parent="ZV8GHxd2IntCmvQJXcL1-29" vertex="1">
          <mxGeometry x="90" width="97" height="37" as="geometry">
            <mxRectangle width="97" height="37" as="alternateBounds" />
          </mxGeometry>
        </mxCell>
        <mxCell id="ZV8GHxd2IntCmvQJXcL1-32" value="Title 3" style="connectable=0;recursiveResize=0;strokeColor=inherit;fillColor=#A7C942;align=center;fontStyle=1;fontColor=#FFFFFF;html=1;" parent="ZV8GHxd2IntCmvQJXcL1-29" vertex="1">
          <mxGeometry x="187" width="93" height="37" as="geometry">
            <mxRectangle width="93" height="37" as="alternateBounds" />
          </mxGeometry>
        </mxCell>
        <mxCell id="ZV8GHxd2IntCmvQJXcL1-33" value="" style="shape=tableRow;horizontal=0;startSize=0;swimlaneHead=0;swimlaneBody=0;top=0;left=0;bottom=0;right=0;dropTarget=0;collapsible=0;recursiveResize=0;expand=0;fontStyle=0;strokeColor=inherit;fillColor=#ffffff;" parent="ZV8GHxd2IntCmvQJXcL1-28" vertex="1">
          <mxGeometry y="37" width="280" height="36" as="geometry" />
        </mxCell>
        <mxCell id="ZV8GHxd2IntCmvQJXcL1-34" value="Value 1" style="connectable=0;recursiveResize=0;strokeColor=inherit;fillColor=inherit;align=center;whiteSpace=wrap;html=1;" parent="ZV8GHxd2IntCmvQJXcL1-33" vertex="1">
          <mxGeometry width="90" height="36" as="geometry">
            <mxRectangle width="90" height="36" as="alternateBounds" />
          </mxGeometry>
        </mxCell>
        <mxCell id="ZV8GHxd2IntCmvQJXcL1-35" value="Value 2" style="connectable=0;recursiveResize=0;strokeColor=inherit;fillColor=inherit;align=center;whiteSpace=wrap;html=1;" parent="ZV8GHxd2IntCmvQJXcL1-33" vertex="1">
          <mxGeometry x="90" width="97" height="36" as="geometry">
            <mxRectangle width="97" height="36" as="alternateBounds" />
          </mxGeometry>
        </mxCell>
        <mxCell id="ZV8GHxd2IntCmvQJXcL1-36" value="Value 3" style="connectable=0;recursiveResize=0;strokeColor=inherit;fillColor=inherit;align=center;whiteSpace=wrap;html=1;" parent="ZV8GHxd2IntCmvQJXcL1-33" vertex="1">
          <mxGeometry x="187" width="93" height="36" as="geometry">
            <mxRectangle width="93" height="36" as="alternateBounds" />
          </mxGeometry>
        </mxCell>
        <mxCell id="ZV8GHxd2IntCmvQJXcL1-37" value="" style="shape=tableRow;horizontal=0;startSize=0;swimlaneHead=0;swimlaneBody=0;top=0;left=0;bottom=0;right=0;dropTarget=0;collapsible=0;recursiveResize=0;expand=0;fontStyle=1;strokeColor=inherit;fillColor=#EAF2D3;" parent="ZV8GHxd2IntCmvQJXcL1-28" vertex="1">
          <mxGeometry y="73" width="280" height="35" as="geometry" />
        </mxCell>
        <mxCell id="ZV8GHxd2IntCmvQJXcL1-38" value="Value 4" style="connectable=0;recursiveResize=0;strokeColor=inherit;fillColor=inherit;whiteSpace=wrap;html=1;" parent="ZV8GHxd2IntCmvQJXcL1-37" vertex="1">
          <mxGeometry width="90" height="35" as="geometry">
            <mxRectangle width="90" height="35" as="alternateBounds" />
          </mxGeometry>
        </mxCell>
        <mxCell id="ZV8GHxd2IntCmvQJXcL1-39" value="Value 5" style="connectable=0;recursiveResize=0;strokeColor=inherit;fillColor=inherit;whiteSpace=wrap;html=1;" parent="ZV8GHxd2IntCmvQJXcL1-37" vertex="1">
          <mxGeometry x="90" width="97" height="35" as="geometry">
            <mxRectangle width="97" height="35" as="alternateBounds" />
          </mxGeometry>
        </mxCell>
        <mxCell id="ZV8GHxd2IntCmvQJXcL1-40" value="Value 6" style="connectable=0;recursiveResize=0;strokeColor=inherit;fillColor=inherit;whiteSpace=wrap;html=1;" parent="ZV8GHxd2IntCmvQJXcL1-37" vertex="1">
          <mxGeometry x="187" width="93" height="35" as="geometry">
            <mxRectangle width="93" height="35" as="alternateBounds" />
          </mxGeometry>
        </mxCell>
        <mxCell id="ZV8GHxd2IntCmvQJXcL1-41" value="" style="shape=tableRow;horizontal=0;startSize=0;swimlaneHead=0;swimlaneBody=0;top=0;left=0;bottom=0;right=0;dropTarget=0;collapsible=0;recursiveResize=0;expand=0;fontStyle=0;strokeColor=inherit;fillColor=#ffffff;" parent="ZV8GHxd2IntCmvQJXcL1-28" vertex="1">
          <mxGeometry y="108" width="280" height="37" as="geometry" />
        </mxCell>
        <mxCell id="ZV8GHxd2IntCmvQJXcL1-42" value="Value 7" style="connectable=0;recursiveResize=0;strokeColor=inherit;fillColor=inherit;fontStyle=0;align=center;whiteSpace=wrap;html=1;" parent="ZV8GHxd2IntCmvQJXcL1-41" vertex="1">
          <mxGeometry width="90" height="37" as="geometry">
            <mxRectangle width="90" height="37" as="alternateBounds" />
          </mxGeometry>
        </mxCell>
        <mxCell id="ZV8GHxd2IntCmvQJXcL1-43" value="Value 8" style="connectable=0;recursiveResize=0;strokeColor=inherit;fillColor=inherit;fontStyle=0;align=center;whiteSpace=wrap;html=1;" parent="ZV8GHxd2IntCmvQJXcL1-41" vertex="1">
          <mxGeometry x="90" width="97" height="37" as="geometry">
            <mxRectangle width="97" height="37" as="alternateBounds" />
          </mxGeometry>
        </mxCell>
        <mxCell id="ZV8GHxd2IntCmvQJXcL1-44" value="Value 9" style="connectable=0;recursiveResize=0;strokeColor=inherit;fillColor=inherit;fontStyle=0;align=center;whiteSpace=wrap;html=1;" parent="ZV8GHxd2IntCmvQJXcL1-41" vertex="1">
          <mxGeometry x="187" width="93" height="37" as="geometry">
            <mxRectangle width="93" height="37" as="alternateBounds" />
          </mxGeometry>
        </mxCell>
        <mxCell id="ZV8GHxd2IntCmvQJXcL1-45" value="" style="shape=tableRow;horizontal=0;startSize=0;swimlaneHead=0;swimlaneBody=0;top=0;left=0;bottom=0;right=0;dropTarget=0;collapsible=0;recursiveResize=0;expand=0;fontStyle=1;strokeColor=inherit;fillColor=#EAF2D3;" parent="ZV8GHxd2IntCmvQJXcL1-28" vertex="1">
          <mxGeometry y="145" width="280" height="35" as="geometry" />
        </mxCell>
        <mxCell id="ZV8GHxd2IntCmvQJXcL1-46" value="Value 10" style="connectable=0;recursiveResize=0;strokeColor=inherit;fillColor=inherit;whiteSpace=wrap;html=1;" parent="ZV8GHxd2IntCmvQJXcL1-45" vertex="1">
          <mxGeometry width="90" height="35" as="geometry">
            <mxRectangle width="90" height="35" as="alternateBounds" />
          </mxGeometry>
        </mxCell>
        <mxCell id="ZV8GHxd2IntCmvQJXcL1-47" value="Value 11" style="connectable=0;recursiveResize=0;strokeColor=inherit;fillColor=inherit;whiteSpace=wrap;html=1;" parent="ZV8GHxd2IntCmvQJXcL1-45" vertex="1">
          <mxGeometry x="90" width="97" height="35" as="geometry">
            <mxRectangle width="97" height="35" as="alternateBounds" />
          </mxGeometry>
        </mxCell>
        <mxCell id="ZV8GHxd2IntCmvQJXcL1-48" value="Value 12" style="connectable=0;recursiveResize=0;strokeColor=inherit;fillColor=inherit;whiteSpace=wrap;html=1;" parent="ZV8GHxd2IntCmvQJXcL1-45" vertex="1">
          <mxGeometry x="187" width="93" height="35" as="geometry">
            <mxRectangle width="93" height="35" as="alternateBounds" />
          </mxGeometry>
        </mxCell>
        <mxCell id="ZV8GHxd2IntCmvQJXcL1-51" value="" style="shape=table;startSize=0;container=1;collapsible=0;childLayout=tableLayout;fontSize=16;" parent="1" vertex="1">
          <mxGeometry x="340" y="710" width="240" height="100" as="geometry" />
        </mxCell>
        <mxCell id="ZV8GHxd2IntCmvQJXcL1-52" value="" style="shape=tableRow;horizontal=0;startSize=0;swimlaneHead=0;swimlaneBody=0;strokeColor=inherit;top=0;left=0;bottom=0;right=0;collapsible=0;dropTarget=0;fillColor=none;points=[[0,0.5],[1,0.5]];portConstraint=eastwest;fontSize=16;" parent="ZV8GHxd2IntCmvQJXcL1-51" vertex="1">
          <mxGeometry width="240" height="20" as="geometry" />
        </mxCell>
        <mxCell id="ZV8GHxd2IntCmvQJXcL1-53" value="" style="shape=partialRectangle;html=1;whiteSpace=wrap;connectable=0;strokeColor=inherit;overflow=hidden;fillColor=none;top=0;left=0;bottom=0;right=0;pointerEvents=1;fontSize=16;" parent="ZV8GHxd2IntCmvQJXcL1-52" vertex="1">
          <mxGeometry width="80" height="20" as="geometry">
            <mxRectangle width="80" height="20" as="alternateBounds" />
          </mxGeometry>
        </mxCell>
        <mxCell id="ZV8GHxd2IntCmvQJXcL1-54" value="" style="shape=partialRectangle;html=1;whiteSpace=wrap;connectable=0;strokeColor=inherit;overflow=hidden;fillColor=none;top=0;left=0;bottom=0;right=0;pointerEvents=1;fontSize=16;" parent="ZV8GHxd2IntCmvQJXcL1-52" vertex="1">
          <mxGeometry x="80" width="40" height="20" as="geometry">
            <mxRectangle width="40" height="20" as="alternateBounds" />
          </mxGeometry>
        </mxCell>
        <mxCell id="ZV8GHxd2IntCmvQJXcL1-55" value="" style="shape=partialRectangle;html=1;whiteSpace=wrap;connectable=0;strokeColor=inherit;overflow=hidden;fillColor=none;top=0;left=0;bottom=0;right=0;pointerEvents=1;fontSize=16;" parent="ZV8GHxd2IntCmvQJXcL1-52" vertex="1">
          <mxGeometry x="120" width="120" height="20" as="geometry">
            <mxRectangle width="120" height="20" as="alternateBounds" />
          </mxGeometry>
        </mxCell>
        <mxCell id="ZV8GHxd2IntCmvQJXcL1-56" value="" style="shape=tableRow;horizontal=0;startSize=0;swimlaneHead=0;swimlaneBody=0;strokeColor=inherit;top=0;left=0;bottom=0;right=0;collapsible=0;dropTarget=0;fillColor=none;points=[[0,0.5],[1,0.5]];portConstraint=eastwest;fontSize=16;" parent="ZV8GHxd2IntCmvQJXcL1-51" vertex="1">
          <mxGeometry y="20" width="240" height="40" as="geometry" />
        </mxCell>
        <mxCell id="ZV8GHxd2IntCmvQJXcL1-57" value="" style="shape=partialRectangle;html=1;whiteSpace=wrap;connectable=0;strokeColor=inherit;overflow=hidden;fillColor=none;top=0;left=0;bottom=0;right=0;pointerEvents=1;fontSize=16;" parent="ZV8GHxd2IntCmvQJXcL1-56" vertex="1">
          <mxGeometry width="80" height="40" as="geometry">
            <mxRectangle width="80" height="40" as="alternateBounds" />
          </mxGeometry>
        </mxCell>
        <mxCell id="ZV8GHxd2IntCmvQJXcL1-58" value="" style="shape=partialRectangle;html=1;whiteSpace=wrap;connectable=0;strokeColor=inherit;overflow=hidden;fillColor=none;top=0;left=0;bottom=0;right=0;pointerEvents=1;fontSize=16;" parent="ZV8GHxd2IntCmvQJXcL1-56" vertex="1">
          <mxGeometry x="80" width="40" height="40" as="geometry">
            <mxRectangle width="40" height="40" as="alternateBounds" />
          </mxGeometry>
        </mxCell>
        <mxCell id="ZV8GHxd2IntCmvQJXcL1-59" value="" style="shape=partialRectangle;html=1;whiteSpace=wrap;connectable=0;strokeColor=inherit;overflow=hidden;fillColor=none;top=0;left=0;bottom=0;right=0;pointerEvents=1;fontSize=16;" parent="ZV8GHxd2IntCmvQJXcL1-56" vertex="1">
          <mxGeometry x="120" width="120" height="40" as="geometry">
            <mxRectangle width="120" height="40" as="alternateBounds" />
          </mxGeometry>
        </mxCell>
        <mxCell id="ZV8GHxd2IntCmvQJXcL1-60" value="" style="shape=tableRow;horizontal=0;startSize=0;swimlaneHead=0;swimlaneBody=0;strokeColor=inherit;top=0;left=0;bottom=0;right=0;collapsible=0;dropTarget=0;fillColor=none;points=[[0,0.5],[1,0.5]];portConstraint=eastwest;fontSize=16;" parent="ZV8GHxd2IntCmvQJXcL1-51" vertex="1">
          <mxGeometry y="60" width="240" height="40" as="geometry" />
        </mxCell>
        <mxCell id="ZV8GHxd2IntCmvQJXcL1-61" value="" style="shape=partialRectangle;html=1;whiteSpace=wrap;connectable=0;strokeColor=inherit;overflow=hidden;fillColor=none;top=0;left=0;bottom=0;right=0;pointerEvents=1;fontSize=16;" parent="ZV8GHxd2IntCmvQJXcL1-60" vertex="1">
          <mxGeometry width="80" height="40" as="geometry">
            <mxRectangle width="80" height="40" as="alternateBounds" />
          </mxGeometry>
        </mxCell>
        <mxCell id="ZV8GHxd2IntCmvQJXcL1-62" value="" style="shape=partialRectangle;html=1;whiteSpace=wrap;connectable=0;strokeColor=inherit;overflow=hidden;fillColor=none;top=0;left=0;bottom=0;right=0;pointerEvents=1;fontSize=16;" parent="ZV8GHxd2IntCmvQJXcL1-60" vertex="1">
          <mxGeometry x="80" width="40" height="40" as="geometry">
            <mxRectangle width="40" height="40" as="alternateBounds" />
          </mxGeometry>
        </mxCell>
        <mxCell id="ZV8GHxd2IntCmvQJXcL1-63" value="" style="shape=partialRectangle;html=1;whiteSpace=wrap;connectable=0;strokeColor=inherit;overflow=hidden;fillColor=none;top=0;left=0;bottom=0;right=0;pointerEvents=1;fontSize=16;" parent="ZV8GHxd2IntCmvQJXcL1-60" vertex="1">
          <mxGeometry x="120" width="120" height="40" as="geometry">
            <mxRectangle width="120" height="40" as="alternateBounds" />
          </mxGeometry>
        </mxCell>
        <mxCell id="SeTISl_wOBkrLR9eVQTR-1" value="Update" style="swimlane;fontStyle=0;childLayout=stackLayout;horizontal=1;startSize=30;horizontalStack=0;resizeParent=1;resizeParentMax=0;resizeLast=0;collapsible=1;marginBottom=0;whiteSpace=wrap;html=1;" parent="1" vertex="1">
          <mxGeometry x="260" y="980" width="180" height="180" as="geometry">
            <mxRectangle x="260" y="980" width="80" height="30" as="alternateBounds" />
          </mxGeometry>
        </mxCell>
        <mxCell id="SeTISl_wOBkrLR9eVQTR-2" value="callback:&amp;nbsp; setState第二个参数" style="text;strokeColor=none;fillColor=none;align=left;verticalAlign=middle;spacingLeft=4;spacingRight=4;overflow=hidden;points=[[0,0.5],[1,0.5]];portConstraint=eastwest;rotatable=0;whiteSpace=wrap;html=1;" parent="SeTISl_wOBkrLR9eVQTR-1" vertex="1">
          <mxGeometry y="30" width="180" height="30" as="geometry" />
        </mxCell>
        <mxCell id="SeTISl_wOBkrLR9eVQTR-3" value="lane: 优先级" style="text;strokeColor=none;fillColor=none;align=left;verticalAlign=middle;spacingLeft=4;spacingRight=4;overflow=hidden;points=[[0,0.5],[1,0.5]];portConstraint=eastwest;rotatable=0;whiteSpace=wrap;html=1;" parent="SeTISl_wOBkrLR9eVQTR-1" vertex="1">
          <mxGeometry y="60" width="180" height="30" as="geometry" />
        </mxCell>
        <mxCell id="SeTISl_wOBkrLR9eVQTR-5" value="tag：0 | 1 | 2 | 3" style="text;strokeColor=none;fillColor=none;align=left;verticalAlign=middle;spacingLeft=4;spacingRight=4;overflow=hidden;points=[[0,0.5],[1,0.5]];portConstraint=eastwest;rotatable=0;whiteSpace=wrap;html=1;" parent="SeTISl_wOBkrLR9eVQTR-1" vertex="1">
          <mxGeometry y="90" width="180" height="30" as="geometry" />
        </mxCell>
        <mxCell id="SeTISl_wOBkrLR9eVQTR-4" value="payload: {count: 1}&lt;br&gt;" style="text;strokeColor=none;fillColor=none;align=left;verticalAlign=middle;spacingLeft=4;spacingRight=4;overflow=hidden;points=[[0,0.5],[1,0.5]];portConstraint=eastwest;rotatable=0;whiteSpace=wrap;html=1;" parent="SeTISl_wOBkrLR9eVQTR-1" vertex="1">
          <mxGeometry y="120" width="180" height="30" as="geometry" />
        </mxCell>
        <mxCell id="SeTISl_wOBkrLR9eVQTR-6" value="next" style="text;strokeColor=none;fillColor=none;align=left;verticalAlign=middle;spacingLeft=4;spacingRight=4;overflow=hidden;points=[[0,0.5],[1,0.5]];portConstraint=eastwest;rotatable=0;whiteSpace=wrap;html=1;" parent="SeTISl_wOBkrLR9eVQTR-1" vertex="1">
          <mxGeometry y="150" width="180" height="30" as="geometry" />
        </mxCell>
        <mxCell id="SeTISl_wOBkrLR9eVQTR-7" value="Update" style="swimlane;fontStyle=0;childLayout=stackLayout;horizontal=1;startSize=30;horizontalStack=0;resizeParent=1;resizeParentMax=0;resizeLast=0;collapsible=1;marginBottom=0;whiteSpace=wrap;html=1;" parent="1" vertex="1">
          <mxGeometry x="510" y="980" width="180" height="180" as="geometry">
            <mxRectangle x="260" y="980" width="80" height="30" as="alternateBounds" />
          </mxGeometry>
        </mxCell>
        <mxCell id="SeTISl_wOBkrLR9eVQTR-8" value="callback:&amp;nbsp; setState第二个参数" style="text;strokeColor=none;fillColor=none;align=left;verticalAlign=middle;spacingLeft=4;spacingRight=4;overflow=hidden;points=[[0,0.5],[1,0.5]];portConstraint=eastwest;rotatable=0;whiteSpace=wrap;html=1;" parent="SeTISl_wOBkrLR9eVQTR-7" vertex="1">
          <mxGeometry y="30" width="180" height="30" as="geometry" />
        </mxCell>
        <mxCell id="SeTISl_wOBkrLR9eVQTR-9" value="lane: 优先级" style="text;strokeColor=none;fillColor=none;align=left;verticalAlign=middle;spacingLeft=4;spacingRight=4;overflow=hidden;points=[[0,0.5],[1,0.5]];portConstraint=eastwest;rotatable=0;whiteSpace=wrap;html=1;" parent="SeTISl_wOBkrLR9eVQTR-7" vertex="1">
          <mxGeometry y="60" width="180" height="30" as="geometry" />
        </mxCell>
        <mxCell id="SeTISl_wOBkrLR9eVQTR-10" value="tag" style="text;strokeColor=none;fillColor=none;align=left;verticalAlign=middle;spacingLeft=4;spacingRight=4;overflow=hidden;points=[[0,0.5],[1,0.5]];portConstraint=eastwest;rotatable=0;whiteSpace=wrap;html=1;" parent="SeTISl_wOBkrLR9eVQTR-7" vertex="1">
          <mxGeometry y="90" width="180" height="30" as="geometry" />
        </mxCell>
        <mxCell id="SeTISl_wOBkrLR9eVQTR-11" value="payload: {count: 1}&lt;br&gt;" style="text;strokeColor=none;fillColor=none;align=left;verticalAlign=middle;spacingLeft=4;spacingRight=4;overflow=hidden;points=[[0,0.5],[1,0.5]];portConstraint=eastwest;rotatable=0;whiteSpace=wrap;html=1;" parent="SeTISl_wOBkrLR9eVQTR-7" vertex="1">
          <mxGeometry y="120" width="180" height="30" as="geometry" />
        </mxCell>
        <mxCell id="SeTISl_wOBkrLR9eVQTR-20" value="" style="endArrow=classic;html=1;rounded=0;entryX=0;entryY=0.5;entryDx=0;entryDy=0;exitX=0.222;exitY=0.5;exitDx=0;exitDy=0;exitPerimeter=0;" parent="SeTISl_wOBkrLR9eVQTR-7" target="SeTISl_wOBkrLR9eVQTR-18" edge="1">
          <mxGeometry width="50" height="50" relative="1" as="geometry">
            <mxPoint x="30" y="166.5" as="sourcePoint" />
            <mxPoint x="237" y="163.5" as="targetPoint" />
          </mxGeometry>
        </mxCell>
        <mxCell id="SeTISl_wOBkrLR9eVQTR-12" value="next" style="text;strokeColor=none;fillColor=none;align=left;verticalAlign=middle;spacingLeft=4;spacingRight=4;overflow=hidden;points=[[0,0.5],[1,0.5]];portConstraint=eastwest;rotatable=0;whiteSpace=wrap;html=1;" parent="SeTISl_wOBkrLR9eVQTR-7" vertex="1">
          <mxGeometry y="150" width="180" height="30" as="geometry" />
        </mxCell>
        <mxCell id="SeTISl_wOBkrLR9eVQTR-13" value="Update" style="swimlane;fontStyle=0;childLayout=stackLayout;horizontal=1;startSize=30;horizontalStack=0;resizeParent=1;resizeParentMax=0;resizeLast=0;collapsible=1;marginBottom=0;whiteSpace=wrap;html=1;" parent="1" vertex="1">
          <mxGeometry x="750" y="980" width="180" height="180" as="geometry">
            <mxRectangle x="260" y="980" width="80" height="30" as="alternateBounds" />
          </mxGeometry>
        </mxCell>
        <mxCell id="SeTISl_wOBkrLR9eVQTR-14" value="callback:&amp;nbsp; setState第二个参数" style="text;strokeColor=none;fillColor=none;align=left;verticalAlign=middle;spacingLeft=4;spacingRight=4;overflow=hidden;points=[[0,0.5],[1,0.5]];portConstraint=eastwest;rotatable=0;whiteSpace=wrap;html=1;" parent="SeTISl_wOBkrLR9eVQTR-13" vertex="1">
          <mxGeometry y="30" width="180" height="30" as="geometry" />
        </mxCell>
        <mxCell id="SeTISl_wOBkrLR9eVQTR-15" value="lane: 优先级" style="text;strokeColor=none;fillColor=none;align=left;verticalAlign=middle;spacingLeft=4;spacingRight=4;overflow=hidden;points=[[0,0.5],[1,0.5]];portConstraint=eastwest;rotatable=0;whiteSpace=wrap;html=1;" parent="SeTISl_wOBkrLR9eVQTR-13" vertex="1">
          <mxGeometry y="60" width="180" height="30" as="geometry" />
        </mxCell>
        <mxCell id="SeTISl_wOBkrLR9eVQTR-16" value="tag" style="text;strokeColor=none;fillColor=none;align=left;verticalAlign=middle;spacingLeft=4;spacingRight=4;overflow=hidden;points=[[0,0.5],[1,0.5]];portConstraint=eastwest;rotatable=0;whiteSpace=wrap;html=1;" parent="SeTISl_wOBkrLR9eVQTR-13" vertex="1">
          <mxGeometry y="90" width="180" height="30" as="geometry" />
        </mxCell>
        <mxCell id="SeTISl_wOBkrLR9eVQTR-17" value="payload: {count: 1}&lt;br&gt;" style="text;strokeColor=none;fillColor=none;align=left;verticalAlign=middle;spacingLeft=4;spacingRight=4;overflow=hidden;points=[[0,0.5],[1,0.5]];portConstraint=eastwest;rotatable=0;whiteSpace=wrap;html=1;" parent="SeTISl_wOBkrLR9eVQTR-13" vertex="1">
          <mxGeometry y="120" width="180" height="30" as="geometry" />
        </mxCell>
        <mxCell id="SeTISl_wOBkrLR9eVQTR-18" value="next" style="text;strokeColor=none;fillColor=none;align=left;verticalAlign=middle;spacingLeft=4;spacingRight=4;overflow=hidden;points=[[0,0.5],[1,0.5]];portConstraint=eastwest;rotatable=0;whiteSpace=wrap;html=1;" parent="SeTISl_wOBkrLR9eVQTR-13" vertex="1">
          <mxGeometry y="150" width="180" height="30" as="geometry" />
        </mxCell>
        <mxCell id="SeTISl_wOBkrLR9eVQTR-19" value="" style="endArrow=classic;html=1;rounded=0;entryX=0;entryY=0.667;entryDx=0;entryDy=0;entryPerimeter=0;exitX=0.222;exitY=0.5;exitDx=0;exitDy=0;exitPerimeter=0;" parent="1" source="SeTISl_wOBkrLR9eVQTR-6" target="SeTISl_wOBkrLR9eVQTR-12" edge="1">
          <mxGeometry width="50" height="50" relative="1" as="geometry">
            <mxPoint x="520" y="1130" as="sourcePoint" />
            <mxPoint x="570" y="1080" as="targetPoint" />
          </mxGeometry>
        </mxCell>
        <mxCell id="SeTISl_wOBkrLR9eVQTR-21" value="" style="endArrow=classic;html=1;rounded=0;exitX=0.278;exitY=0.667;exitDx=0;exitDy=0;exitPerimeter=0;edgeStyle=orthogonalEdgeStyle;entryX=0.587;entryY=0.99;entryDx=0;entryDy=0;entryPerimeter=0;" parent="1" source="SeTISl_wOBkrLR9eVQTR-18" target="SeTISl_wOBkrLR9eVQTR-6" edge="1">
          <mxGeometry width="50" height="50" relative="1" as="geometry">
            <mxPoint x="620" y="1190" as="sourcePoint" />
            <mxPoint x="430" y="1321" as="targetPoint" />
            <Array as="points">
              <mxPoint x="800" y="1190" />
              <mxPoint x="366" y="1190" />
            </Array>
          </mxGeometry>
        </mxCell>
        <mxCell id="SeTISl_wOBkrLR9eVQTR-22" value="&lt;div style=&quot;font-family: Menlo, Monaco, &amp;quot;Courier New&amp;quot;, monospace; line-height: 18px;&quot;&gt;&lt;font style=&quot;&quot; color=&quot;#030303&quot;&gt;tag:UpdateState：0，ForceUpdate：2，ReplaceUpdate: 1,CaptureUpdate: 3&lt;/font&gt;&lt;/div&gt;" style="text;html=1;align=center;verticalAlign=middle;resizable=0;points=[];autosize=1;strokeColor=none;fillColor=none;" parent="1" vertex="1">
          <mxGeometry x="250" y="930" width="510" height="30" as="geometry" />
        </mxCell>
        <mxCell id="uP-4CfR8yQ4A3LWBCcVM-1" value="" style="rounded=0;whiteSpace=wrap;html=1;" vertex="1" parent="1">
          <mxGeometry x="1050" y="340" width="120" height="60" as="geometry" />
        </mxCell>
      </root>
    </mxGraphModel>
  </diagram>
</mxfile>
